<?xml version="1.0" encoding="UTF-8" standalone="no"?>
<!DOCTYPE svg PUBLIC "-//W3C//DTD SVG 1.1//EN" "http://www.w3.org/Graphics/SVG/1.1/DTD/svg11.dtd">
<!-- Created with Vectornator (http://vectornator.io/) -->
<svg height="100%" stroke-miterlimit="10" style="fill-rule:nonzero;clip-rule:evenodd;stroke-linecap:round;stroke-linejoin:round;" version="1.1" viewBox="0 0 949.196 1600.91" width="100%" xml:space="preserve" xmlns="http://www.w3.org/2000/svg" xmlns:vectornator="http://vectornator.io" xmlns:xlink="http://www.w3.org/1999/xlink">
<defs/>
<g id="Untitled" vectornator:layerName="Untitled">
<path d="M941.261 995.713C941.589 1008.14 942.451 1020.09 942.112 1032.01C941.681 1047.16 941.22 1062.42 939.063 1077.38C936.017 1098.52 931.783 1119.51 927.357 1140.42C923.13 1160.38 918.496 1180.29 913.158 1199.97C905.884 1226.8 897.873 1253.43 889.966 1280.08C887.139 1289.61 883.763 1298.98 880.517 1308.38C875.527 1322.83 870.615 1337.31 865.335 1351.66C859.64 1367.13 853.621 1382.49 847.633 1397.85C839.15 1419.61 830.919 1441.48 821.926 1463.03C813.293 1483.71 804.312 1504.39 790.886 1522.47C778.318 1539.4 761.077 1550.45 742.208 1559.41C724.571 1567.78 706.029 1573.15 687.319 1578.08C672.311 1582.03 657.217 1585.71 642.042 1588.95C633.024 1590.87 623.789 1591.81 614.627 1593C601.196 1594.75 587.751 1596.39 574.297 1597.95C569.694 1598.49 565.05 1598.89 560.421 1598.94C526.07 1599.34 491.719 1599.73 457.367 1599.91C447.487 1599.96 437.599 1599.41 427.723 1598.95C415.673 1598.4 403.621 1597.81 391.591 1596.95C380.652 1596.17 369.69 1595.39 358.829 1593.93C341.644 1591.61 324.557 1588.58 307.39 1586.12C285.828 1583.02 235.189 1573.17 186.307 1539.38C175.406 1531.85 163.315 1516.09 155.02 1505.66C145.925 1494.23 141.974 1486.21 134.018 1473.97C126.762 1462.81 120.831 1450.76 114.541 1438.97C108.63 1427.9 102.493 1416.9 97.3832 1405.45C88.492 1385.53 79.409 1365.61 72.1032 1345.07C65.3701 1326.15 60.7407 1306.46 55.4197 1287.04C50.7376 1269.95 46.1829 1252.82 41.9403 1235.61C38.2688 1220.73 34.6492 1205.8 31.8674 1190.72C29.2638 1176.62 28.0278 1162.26 25.7581 1148.08C23.0633 1131.25 19.7619 1114.51 16.994 1097.69C14.491 1082.48 12.7336 1067.13 9.95414 1051.98C6.67687 1034.11 6.3886 1016.09 7.28614 998.136C8.40675 975.728 16.0759 955.276 28.6991 936.681C37.1972 924.163 48.1146 914.943 62.3501 909.836C63.0714 909.577 63.8717 909.547 64.6308 909.389C73.3407 907.575 74.0858 906.125 75.234 897.397C76.1781 890.219 77.9986 883.089 80.1249 876.153C84.2517 862.691 88.6429 849.301 93.3353 836.029C99.1901 819.468 105.873 803.196 111.439 786.542C117.513 768.367 122.715 749.897 128.303 731.557C134.739 710.43 141.371 689.36 147.554 668.159C151.65 654.115 154.912 639.826 158.902 625.749C163.169 610.692 167.837 595.75 172.358 580.767C177.364 564.171 182.437 547.596 187.416 530.992C191.736 516.583 195.808 502.096 200.285 487.737C204.11 475.466 208.231 463.284 212.445 451.141C217.656 436.125 223.243 421.24 228.313 406.178C229.308 403.22 229.039 399.679 228.751 396.461C227.586 383.436 226.121 370.439 224.902 357.418C224.39 351.95 224.437 346.426 223.842 340.97C222.331 327.089 220.681 313.221 218.931 299.369C217.765 290.141 216.338 280.947 215.016 271.74C213.38 260.353 211.686 248.974 210.117 237.577C209.616 233.935 209.326 230.254 209.127 226.581C208.724 219.116 208.54 211.638 208.1 204.175C207.178 188.542 205.855 172.927 205.257 157.283C204.789 145.008 204.442 132.646 205.337 120.419C206.595 103.233 208.291 85.9621 214.098 69.5602C218.928 55.9185 225.458 43.1352 236.316 33.2094C247.048 23.3995 259.668 17.16 273.906 14.465C280.67 13.1848 287.504 11.9418 294.356 11.5399C309.008 10.6805 320.742 17.8723 331.295 26.9488C347.716 41.0723 359.353 59.1257 369.556 77.9391C377.697 92.9519 384.439 108.744 391.548 124.309C393.535 128.659 396.782 127.782 399.966 127.285C407.027 126.183 414.003 124.402 421.092 123.635C443.74 121.187 461.175 131.988 474.987 148.202C484.497 159.366 490.058 173.461 493.802 187.843C496.536 198.344 499.244 208.959 500.553 219.698C501.672 228.876 500.785 238.303 500.785 247.62C500.785 250.265 501.021 252.936 500.744 255.553C499.524 267.086 498.37 278.633 496.785 290.119C495.069 302.561 493.323 315.027 490.826 327.326C487.563 343.403 483.806 359.391 479.789 375.297C475.947 390.507 471.214 405.491 467.516 420.733C466.544 424.739 470.569 471.108 471.332 482.019C471.881 489.864 473.324 497.656 474.586 505.436C475.962 513.922 477.649 522.355 479.09 530.83C480.799 540.882 482.521 550.935 483.985 561.025C484.899 567.327 485.062 573.745 486.064 580.029C488.083 592.695 490.492 605.298 492.649 617.942C494.127 626.607 495.396 635.307 496.858 643.975C498.419 653.229 500.161 662.453 501.703 671.711C503.123 680.236 504.292 688.803 505.74 697.323C506.915 704.24 508.258 711.132 509.738 717.989C509.969 719.058 510.706 721.465 512.172 720.815C512.272 720.691 514.072 718.363 516.526 715.305C520.129 710.816 525.143 704.752 528.262 701.771C539.343 691.178 553.527 686.675 567.897 683.285C588.157 678.505 607.409 681.463 625.636 692.117C636.686 698.576 645.955 706.739 653.858 716.708C658.513 722.58 664.038 727.868 667.974 734.176C675.125 745.633 681.377 757.658 688.018 769.439C688.775 770.783 689.616 772.08 690.418 773.399C691.114 772.406 691.709 771.318 692.523 770.434C699.917 762.405 709.401 757.692 719.547 754.756C729.897 751.761 757.464 751.862 770.842 753.757C796.506 757.393 807.203 768.213 810.318 770.217C813.989 772.579 828.867 788.414 835.872 799.598C845.35 814.73 850.804 831.456 855.393 848.497C856.601 852.982 856.008 858.098 861.673 859.752C872.041 862.78 881.673 867.519 890.35 873.773C896.341 878.091 902.31 883.154 906.478 889.159C912.837 898.32 917.894 908.444 923.021 918.412C929.591 931.184 933.507 944.986 936.199 959.014C938.492 970.964 939.619 983.141 941.261 995.713M120.418 1274.03C122.401 1280.99 124.176 1288.01 126.409 1294.89C131.184 1309.58 135.906 1324.31 141.181 1338.83C148.794 1359.78 156.459 1380.74 164.918 1401.35C170.051 1413.86 183.111 1435.96 217.435 1467.51C227.806 1477.05 240.241 1484.28 252.186 1491.83C261.464 1497.7 302.09 1510.95 312.568 1512.67C330.565 1515.6 348.497 1519 366.557 1521.46C380.874 1523.41 395.326 1524.46 409.747 1525.49C423.248 1526.46 436.784 1526.97 450.312 1527.51C461.831 1527.97 473.361 1528.52 484.883 1528.47C513.488 1528.33 542.092 1527.92 570.694 1527.51C579.922 1527.37 589.157 1527.08 598.366 1526.5C611.108 1525.7 623.871 1524.93 636.548 1523.47C649.906 1521.93 663.187 1519.69 676.478 1517.6C694.959 1514.69 714.186 1509.76 730.554 1500.48C747.038 1491.13 755.537 1475.28 763.651 1459.08C769.702 1446.99 773.662 1433.84 778.414 1421.11C784.877 1403.79 791.152 1386.4 797.606 1369.08C807.311 1343.04 817.174 1317.05 826.817 1290.98C830.371 1281.37 833.778 1271.69 836.739 1261.89C841.006 1247.76 844.902 1233.52 848.777 1219.28C853.426 1202.19 858.041 1185.08 862.38 1167.91C865.904 1153.96 869.181 1139.94 872.226 1125.88C874.799 1114 877.174 1102.06 879.093 1090.06C880.82 1079.27 881.972 1068.37 883.082 1057.49C884.559 1043 886.393 1028.51 886.858 1013.98C887.224 1002.55 885.756 991.056 885.091 979.59C884.173 963.746 880.455 948.472 875.025 933.678C872.985 928.118 869.383 923.135 866.423 917.929C866.081 917.327 865.294 916.981 864.714 916.515C864.28 917.327 863.445 918.158 863.483 918.946C863.652 922.455 864.392 925.956 864.342 929.452C864.159 942.215 863.892 954.981 863.367 967.734C862.942 978.053 862.559 988.411 861.324 998.649C859.859 1010.79 858.647 1023.16 855.238 1034.81C851.051 1049.12 845.764 1063.12 839.074 1076.67C831.329 1092.34 822.581 1107.06 809.065 1118.09C801.98 1123.87 793.814 1128.69 785.467 1132.43C774.322 1137.43 762.377 1137.99 750.046 1136.9C740.863 1136.1 732.149 1134.12 724.03 1130.46C708.337 1123.39 695.127 1112.4 682.569 1100.76C675.209 1093.93 676.22 1094.04 672.04 1103.36C667.215 1114.11 662.059 1125.15 654.815 1134.26C644.965 1146.66 632.857 1156.64 617.523 1162.89C603.006 1168.81 584.893 1173.65 560.039 1169.37C547.728 1167.25 528.09 1153.07 519.559 1144.06C516.98 1141.34 514.854 1140.56 511.343 1143.16C502.104 1150.01 492.551 1156.44 483.029 1162.89C462.86 1176.56 429.864 1184.96 416.581 1188.15C400.765 1191.94 384.185 1191.74 367.963 1191.97C342.411 1192.32 316.751 1193.7 291.346 1189.19C273.028 1185.94 254.691 1182.63 237.474 1175.24C223.618 1169.29 209.918 1162.65 199.651 1151.18C191.424 1141.99 184.186 1131.9 176.579 1122.15C175.844 1121.21 175.599 1119.88 175.126 1118.73C176.364 1118.66 177.64 1118.37 178.833 1118.57C190.643 1120.57 202.441 1122.63 214.238 1124.71C222.349 1126.13 230.656 1126.9 238.518 1129.2C257.543 1134.76 277.074 1136.5 296.638 1137.43C313.515 1138.24 330.461 1137.6 347.376 1137.6C348.69 1137.6 372.94 1135.39 400.064 1129.13C424.623 1123.46 447.422 1111.57 469.388 1098.87C478.173 1093.79 487.426 1089.17 495.228 1082.81C507.977 1072.41 517.811 1058.93 521.416 1042.77C526.159 1021.51 515.438 1011.59 513.057 1008.89C496.907 990.643 471.024 985.305 461.687 983.141C451.254 980.723 440.252 980.721 429.482 979.869C419.255 979.061 409.005 978.543 398.769 977.845C389.678 977.224 380.593 976.494 371.501 975.879C361.101 975.175 350.695 974.574 340.294 973.876C331.039 973.255 321.784 972.605 312.536 971.889C300.295 970.941 288.064 969.854 275.821 968.939C261.618 967.878 247.412 966.838 233.197 965.976C220.01 965.176 206.815 964.458 193.613 964.006C178.482 963.487 163.342 963.229 148.203 962.997C138.844 962.853 129.479 962.842 120.121 963.008C111.714 963.158 103.294 963.394 94.9178 964.073C91.2994 964.367 87.1577 964.563 84.9437 968.452C82.8954 972.051 80.9024 975.686 79.0199 979.375C72.7071 991.745 71.9649 1005.33 71.2778 1018.76C70.6621 1030.8 70.5074 1042.94 71.3302 1054.96C72.1367 1066.73 74.4242 1078.4 76.078 1090.12C77.3781 1099.33 78.4036 1108.59 80.0894 1117.73C82.429 1130.41 85.0908 1143.04 87.9475 1155.62C91.2679 1170.24 94.8047 1184.81 98.5157 1199.33C101.678 1211.7 105.008 1224.04 108.653 1236.28C112.325 1248.61 116.477 1260.79 120.418 1274.03M457.92 732.777C457.454 731.316 451.67 694.291 448.088 678.065C443.551 657.519 440.272 638.002 437.215 617.192C435.067 602.564 428.962 566.145 428.78 562.351C428.727 561.259 427.826 560.209 427.313 559.14C426.512 560.277 425.31 561.305 424.971 562.568C421.975 573.735 419.21 584.966 416.226 596.137C412.294 610.855 408.148 625.516 404.236 640.24C400.199 655.436 396.354 670.685 392.383 685.899C389.465 697.077 386.3 708.194 383.57 719.418C380.678 731.312 378.416 743.363 375.434 755.232C371.456 771.06 366.816 786.722 362.92 802.57C360.763 811.347 359.796 820.415 357.821 829.245C356.247 836.285 354.605 843.438 351.824 850.042C348.387 858.206 344.189 866.141 339.457 873.621C336.434 878.398 334.245 877.707 331.3 872.297C327.707 865.695 324.162 859.068 320.576 852.463C314.073 840.488 310.133 827.894 311.602 814.049C312.507 805.522 313.31 796.972 314.603 788.502C316.421 776.59 318.539 764.721 320.735 752.872C323.148 739.853 325.749 726.869 328.352 713.887C330.737 701.998 332.937 690.059 335.753 678.272C339.585 662.228 343.911 646.303 348.051 630.335C351.687 616.311 355.041 602.202 359.102 588.304C363.613 572.868 369.24 557.757 373.555 542.271C379.267 521.773 383.988 500.998 389.495 480.439C393.788 464.416 398.679 448.556 403.217 432.598C408.852 412.785 414.552 392.988 419.932 373.103C424.122 357.618 428.083 342.063 431.745 326.444C435.394 310.884 438.743 295.245 441.849 279.566C444.373 266.828 447.273 254.055 448.328 241.159C449.707 224.284 448.394 207.355 444.617 190.735C441.655 177.701 438.543 170.806 420.944 171.365C414.884 171.557 408.691 173.251 402.901 175.26C383.606 181.954 368.205 194.411 356.056 210.547C343.105 227.748 335.425 247.727 329.059 268.196C319.181 299.958 309.428 331.761 299.409 363.479C293.6 381.868 287.316 400.105 281.355 418.447C275.817 435.491 270.23 452.523 265.015 469.668C258.315 491.698 252.162 513.897 245.408 535.91C238.218 559.342 230.682 582.668 223.144 605.99C217.354 623.902 211.4 641.761 205.384 659.598C200.154 675.101 195.046 690.658 189.321 705.978C181.412 727.14 173.01 748.116 164.748 769.144C159.558 782.355 154.221 795.508 148.983 808.701C144.364 820.334 140.036 832.091 135.142 843.605C127.98 860.455 124.631 878.341 120.466 896.011C119.809 898.801 120.685 900.915 124.246 900.473C127.387 900.084 130.545 899.482 133.689 899.521C151.782 899.744 169.874 900.095 187.966 900.472C200.968 900.743 213.971 901.067 226.969 901.482C231.765 901.635 236.55 902.132 241.342 902.442C256.863 903.443 272.386 904.395 287.904 905.435C296.669 906.022 305.443 906.567 314.18 907.45C325.478 908.592 336.735 910.141 348.026 911.349C358.444 912.464 368.918 913.094 379.305 914.427C389.507 915.735 399.662 917.486 409.78 919.359C420.877 921.413 431.89 923.921 442.978 926.025C446.053 926.609 449.796 927.402 451.439 923.53C453.403 918.897 455.38 914.133 456.33 909.225C458.951 895.696 461.471 882.118 463.187 868.452C464.32 859.431 464.233 850.227 464.28 841.102C464.41 815.804 464.313 790.504 464.34 765.205C464.344 762.288 460.502 741 457.92 732.777M637.263 1087C639.398 1078.63 642.116 1070.36 643.533 1061.87C645.693 1048.92 647.066 1035.83 648.553 1022.77C649.442 1014.97 649.993 1007.13 650.548 999.297C651.596 984.503 652.499 969.698 653.538 954.903C654.111 946.74 654.678 938.57 655.532 930.434C656.691 919.393 658.931 908.405 659.261 897.351C659.891 876.24 659.885 855.089 656.511 834.108C654.686 822.754 653.349 811.321 651.517 799.968C648.388 780.571 642.476 762.147 630.709 746.196C626.596 740.62 621.61 735.602 616.529 730.866C609.763 724.56 601.026 723.298 592.229 721.668C580.423 719.481 570.094 722.793 560.16 728.191C552.274 732.477 545.807 738.654 540.438 745.929C534.283 754.271 519.938 788.823 517.584 796.9C512.652 813.822 504.382 887.709 503.925 900.748C503.438 914.634 504.236 928.58 504.913 942.479C505.007 944.412 507.246 946.906 509.14 947.953C514.045 950.667 547.424 965.203 556.256 974.668C561.589 980.384 567.63 985.591 572.084 991.93C576.706 998.51 581.339 1005.67 583.314 1013.46C588.647 1034.49 583.854 1059.04 580.65 1069.04C575.393 1085.45 559.658 1111.53 557.706 1114.53C555.585 1117.78 569.818 1128.58 586.806 1125.28C595.456 1123.6 603.8 1119.26 611.353 1114.58C622.047 1107.95 631.519 1099.58 637.263 1087M694.91 942.63C693.924 951.645 691.953 994.717 691.169 1007.6C690.431 1019.72 691.609 1031.35 696.706 1042.29C702.99 1055.79 711.145 1067.37 723.105 1076.28C731.68 1082.67 741.251 1087.14 751.717 1087.01C767.517 1086.81 778.704 1076.54 784.052 1070.94C793.925 1060.61 800.105 1047.87 804.211 1034.28C810.035 1014.99 812.65 994.992 812.904 975C813.276 945.854 814.866 916.607 811.141 887.534C809.441 874.266 807.543 861.009 805.204 847.843C801.887 829.17 793.003 813.652 778.939 800.787C769.547 792.196 758.914 788.248 746.559 788.386C739.631 788.464 732.692 788.801 725.788 789.384C717.302 790.102 708.948 795.202 704.741 802.756C697.282 816.147 703.316 828.881 699.085 894.041C698.214 907.462 696.223 934.249 694.91 942.63M266.258 307.614C268.464 300.102 270.374 292.486 272.926 285.095C282.76 256.618 293.667 228.546 308.187 202.129C314.009 191.536 321.08 181.55 328.377 171.896C333.56 165.039 340.137 159.26 345.935 152.855C346.918 151.769 347.906 149.702 347.539 148.51C343.44 135.197 339.488 121.813 334.675 108.755C329.088 93.6002 321.689 79.3297 312.701 65.8193C306.375 56.3115 298.102 51.6986 287.14 53.2641C277.872 54.5879 270.212 59.7988 263.484 66.3071C257.989 71.622 252.773 77.179 251.529 85.1175C250.305 92.9339 248.744 100.811 248.675 108.674C248.517 126.716 248.776 144.786 249.639 162.807C250.279 176.177 252.185 189.484 253.429 202.829C254.189 210.976 254.609 219.156 255.453 227.294C256.977 241.995 258.816 256.663 260.31 271.367C261.475 282.84 262.27 294.35 263.399 305.827C263.481 306.659 264.945 307.352 266.258 307.614Z" fill="#c3bef7" fill-rule="nonzero" opacity="1" stroke="none"/>
</g>
<g id="Layer-1" vectornator:layerName="Layer 1"/>
</svg>
